<svg xmlns="http://www.w3.org/2000/svg" width="144" height="144" viewBox="0 0 144 144"><rect width="144" height="144" rx="18" fill="#151c28"/><g fill="none" stroke="#f5c56b" stroke-width="6" stroke-linecap="round" stroke-linejoin="round"><path d="M47 70V42a7 7 0 0 1 14 0v21-35a7 7 0 0 1 14 0v35-31a7 7 0 0 1 14 0v34-21a7 7 0 0 1 14 0v34c0 20-11 31-28 31-12 0-19-5-26-14L32 75a7 7 0 0 1 10-10l12 14"/></g><text x="72" y="133" text-anchor="middle" font-family="Arial, sans-serif" font-weight="bold" font-size="17" fill="#f5c56b">UNKNOWN</text></svg>
